<svg width="51" height="51" viewBox="0 0 51 51" fill="none" xmlns="http://www.w3.org/2000/svg">
<g clip-path="url(#clip0_1549_5605)">
<path d="M50.3887 23.3516L47.6543 16.5156C47.4222 15.9369 47.0216 15.4413 46.5044 15.0931C45.9873 14.7448 45.3774 14.56 44.7539 14.5625H38V13C38 12.5856 37.8354 12.1882 37.5424 11.8951C37.2493 11.6021 36.8519 11.4375 36.4375 11.4375H6.75C5.9212 11.4375 5.12634 11.7667 4.54029 12.3528C3.95424 12.9388 3.625 13.7337 3.625 14.5625V36.4375C3.625 37.2663 3.95424 38.0612 4.54029 38.6472C5.12634 39.2333 5.9212 39.5625 6.75 39.5625H10.0703C10.4145 40.9069 11.1964 42.0985 12.2927 42.9494C13.3889 43.8004 14.7372 44.2623 16.125 44.2623C17.5128 44.2623 18.8611 43.8004 19.9573 42.9494C21.0536 42.0985 21.8355 40.9069 22.1797 39.5625H31.9453C32.2895 40.9069 33.0714 42.0985 34.1677 42.9494C35.2639 43.8004 36.6122 44.2623 38 44.2623C39.3878 44.2623 40.7361 43.8004 41.8323 42.9494C42.9286 42.0985 43.7105 40.9069 44.0547 39.5625H47.375C48.2038 39.5625 48.9987 39.2333 49.5847 38.6472C50.1708 38.0612 50.5 37.2663 50.5 36.4375V23.9375C50.5014 23.7368 50.4635 23.5378 50.3887 23.3516ZM16.125 41.125C15.5069 41.125 14.9027 40.9417 14.3888 40.5983C13.8749 40.255 13.4744 39.7669 13.2379 39.1959C13.0014 38.6249 12.9395 37.9965 13.06 37.3903C13.1806 36.7842 13.4783 36.2273 13.9153 35.7903C14.3523 35.3533 14.9092 35.0556 15.5153 34.935C16.1215 34.8145 16.7499 34.8764 17.3209 35.1129C17.8919 35.3494 18.38 35.7499 18.7233 36.2638C19.0667 36.7777 19.25 37.3819 19.25 38C19.25 38.8288 18.9208 39.6237 18.3347 40.2097C17.7487 40.7958 16.9538 41.125 16.125 41.125ZM27.0625 25.5H23.9375V28.625C23.9375 29.0394 23.7729 29.4368 23.4799 29.7299C23.1868 30.0229 22.7894 30.1875 22.375 30.1875C21.9606 30.1875 21.5632 30.0229 21.2701 29.7299C20.9771 29.4368 20.8125 29.0394 20.8125 28.625V25.5H17.6875C17.2731 25.5 16.8757 25.3354 16.5826 25.0424C16.2896 24.7493 16.125 24.3519 16.125 23.9375C16.125 23.5231 16.2896 23.1257 16.5826 22.8326C16.8757 22.5396 17.2731 22.375 17.6875 22.375H20.8125V19.25C20.8125 18.8356 20.9771 18.4382 21.2701 18.1451C21.5632 17.8521 21.9606 17.6875 22.375 17.6875C22.7894 17.6875 23.1868 17.8521 23.4799 18.1451C23.7729 18.4382 23.9375 18.8356 23.9375 19.25V22.375H27.0625C27.4769 22.375 27.8743 22.5396 28.1674 22.8326C28.4604 23.1257 28.625 23.5231 28.625 23.9375C28.625 24.3519 28.4604 24.7493 28.1674 25.0424C27.8743 25.3354 27.4769 25.5 27.0625 25.5ZM38 41.125C37.3819 41.125 36.7777 40.9417 36.2638 40.5983C35.7499 40.255 35.3494 39.7669 35.1129 39.1959C34.8764 38.6249 34.8145 37.9965 34.935 37.3903C35.0556 36.7842 35.3533 36.2273 35.7903 35.7903C36.2273 35.3533 36.7842 35.0556 37.3903 34.935C37.9965 34.8145 38.6249 34.8764 39.1959 35.1129C39.7669 35.3494 40.255 35.7499 40.5983 36.2638C40.9417 36.7777 41.125 37.3819 41.125 38C41.125 38.8288 40.7958 39.6237 40.2097 40.2097C39.6237 40.7958 38.8288 41.125 38 41.125ZM38 22.375V17.6875H44.7539L46.6289 22.375H38Z" fill="#7B4B97"/>
</g>
<defs>
<clipPath id="clip0_1549_5605">
<rect width="50" height="50" fill="white" transform="translate(0.5 0.5)"/>
</clipPath>
</defs>
</svg>
