<svg width="41" height="40" viewBox="0 0 41 40" fill="none" xmlns="http://www.w3.org/2000/svg">
<path fill-rule="evenodd" clip-rule="evenodd" d="M7.45147 22.3029V21.9315C10.1486 21.0715 14.7258 20.6543 20.5029 22.8543C26.22 25.0315 30.7743 24.3086 33.4886 23.1686C33.329 24.3074 32.8544 25.3789 32.1184 26.2623C31.3823 27.1458 30.4141 27.806 29.3229 28.1686L26.7172 29.0343C26.3068 29.1707 25.9498 29.4329 25.6969 29.7837C25.444 30.1345 25.3082 30.5561 25.3086 30.9886V32.3629C25.3086 32.5447 25.2364 32.7192 25.1078 32.8478C24.9792 32.9764 24.8048 33.0486 24.6229 33.0486H16.3743C16.1925 33.0486 16.0181 32.9764 15.8895 32.8478C15.7609 32.7192 15.6886 32.5447 15.6886 32.3629V30.9915C15.6896 30.5585 15.5541 30.1363 15.3011 29.7849C15.0482 29.4335 14.6909 29.1708 14.28 29.0343L11.6743 28.1657C10.4426 27.7572 9.37096 26.9708 8.61182 25.9182C7.85268 24.8657 7.44466 23.6006 7.44576 22.3029H7.45147ZM18.44 37.1715H16.38C15.1238 37.1718 13.9173 36.6805 13.0187 35.8027C12.12 34.9249 11.6006 33.7302 11.5715 32.4743L10.3715 32.0743C8.32179 31.3888 6.53923 30.0768 5.27551 28.3235C4.0118 26.5701 3.33077 24.4642 3.32861 22.3029V10.3857C3.32861 7.65326 4.41409 5.03268 6.34625 3.10052C8.27841 1.16836 10.899 0.0828857 13.6315 0.0828857H27.3686C30.1011 0.0828857 32.7217 1.16836 34.6538 3.10052C36.586 5.03268 37.6715 7.65326 37.6715 10.3857V22.3C37.6715 26.7372 34.8343 30.6715 30.6258 32.0743L29.4258 32.4743C29.3967 33.7297 28.8776 34.9239 27.9796 35.8017C27.0815 36.6794 25.8758 37.171 24.62 37.1715H22.5629V37.8572C22.5629 38.4039 22.3457 38.9282 21.9591 39.3148C21.5725 39.7014 21.0482 39.9186 20.5015 39.9186C19.9547 39.9186 19.4304 39.7014 19.0438 39.3148C18.6572 38.9282 18.44 38.4039 18.44 37.8572V37.1715ZM20.5058 8.09431L21.6686 7.26289C21.5364 7.07826 21.3621 6.92782 21.1601 6.82404C20.9581 6.72026 20.7343 6.66612 20.5072 6.66612C20.2801 6.66612 20.0563 6.72026 19.8543 6.82404C19.6523 6.92782 19.478 7.07826 19.3458 7.26289L20.5058 8.09431ZM20.5058 8.09431L19.3458 7.26289L19.3429 7.26574L19.3343 7.27717L19.3115 7.3086L19.2258 7.43146C18.8052 8.03441 18.4059 8.65193 18.0286 9.28289C17.6832 9.85187 17.3713 10.4405 17.0943 11.0457C16.8515 11.5886 16.58 12.3115 16.58 12.9886C16.58 14.04 16.98 15.0572 17.7086 15.8172C18.44 16.58 19.4458 17.02 20.5086 17.02C21.5658 17.02 22.5715 16.58 23.3029 15.82C24.0343 15.0572 24.4343 14.04 24.4343 12.9886C24.4343 12.3115 24.16 11.5886 23.92 11.0457C23.6422 10.4404 23.3293 9.8518 22.9829 9.28289C22.6057 8.65097 22.2064 8.03249 21.7858 7.4286L21.7 7.30574L21.6772 7.27431L21.6715 7.26289H21.6686V7.26003L20.5058 8.09431Z" fill="#7B4B97"/>
</svg>
