<svg width="13" height="12" viewBox="0 0 13 12" fill="none" xmlns="http://www.w3.org/2000/svg">
<path d="M11.7168 1.81947C11.8171 1.72266 11.8972 1.60685 11.9523 1.47878C12.0073 1.35071 12.0364 1.21295 12.0376 1.07354C12.0389 0.934136 12.0124 0.79587 11.9597 0.666813C11.907 0.537756 11.8291 0.420493 11.7305 0.321866C11.632 0.223239 11.5148 0.145224 11.3858 0.0923716C11.2568 0.0395194 11.1185 0.0128894 10.9791 0.0140346C10.8397 0.0151799 10.7019 0.0440777 10.5738 0.0990422C10.4457 0.154007 10.3298 0.233937 10.2329 0.334169L6.02479 4.54089L1.81807 0.334169C1.72195 0.231015 1.60604 0.148277 1.47725 0.0908924C1.34846 0.0335075 1.20943 0.00265073 1.06845 0.000163397C0.927477 -0.00232394 0.787446 0.0236092 0.656711 0.0764151C0.525977 0.129221 0.407217 0.207818 0.307518 0.307518C0.207818 0.407217 0.129221 0.525976 0.0764151 0.656711C0.0236092 0.787445 -0.00232394 0.927478 0.000163397 1.06845C0.00265073 1.20943 0.0335075 1.34846 0.0908924 1.47725C0.148277 1.60604 0.231015 1.72195 0.334169 1.81807L4.53809 6.02619L0.33137 10.2329C0.14591 10.4319 0.0449442 10.6952 0.0497433 10.9672C0.0545425 11.2392 0.164732 11.4987 0.357098 11.6911C0.549463 11.8834 0.808985 11.9936 1.08099 11.9984C1.35299 12.0032 1.61624 11.9023 1.81527 11.7168L6.02479 7.51009L10.2315 11.7182C10.4305 11.9037 10.6938 12.0046 10.9658 11.9998C11.2378 11.995 11.4973 11.8848 11.6897 11.6925C11.882 11.5001 11.9922 11.2406 11.997 10.9686C12.0018 10.6966 11.9009 10.4333 11.7154 10.2343L7.51149 6.02619L11.7168 1.81947Z" fill="#787575"/>
</svg>
