<svg width="28" height="30" viewBox="0 0 28 30" fill="none" xmlns="http://www.w3.org/2000/svg">
<path fill-rule="evenodd" clip-rule="evenodd" d="M13.3325 5.9043H3.19742C1.42538 5.9043 -0.0098877 7.42617 -0.0098877 9.30085V26.2804C-0.0098877 28.1567 1.42538 29.677 3.19742 29.677H20.8376C22.6096 29.677 24.0449 28.1567 24.0449 26.2804V13.852L17.7682 20.4976C17.2201 21.0837 16.5062 21.4888 15.7219 21.6587L11.4226 22.5695C8.61616 23.1629 6.14333 20.5441 6.70461 17.5741L7.56417 13.0213C7.71972 12.2003 8.10139 11.4449 8.66106 10.8532L13.3325 5.9043Z" fill="#AE72DA"/>
<path fill-rule="evenodd" clip-rule="evenodd" d="M27.0053 2.92459C26.8431 2.5141 26.6054 2.13768 26.3045 1.81486C26.0085 1.49914 25.6518 1.24657 25.2557 1.07236C24.8654 0.900987 24.4439 0.8125 24.0177 0.8125C23.5915 0.8125 23.1699 0.900987 22.7797 1.07236C22.3835 1.24657 22.0268 1.49914 21.7309 1.81486L20.8553 2.74177L25.4289 7.58483L26.3045 6.65631C26.6086 6.33594 26.8467 5.95887 27.0053 5.54657C27.3356 4.7038 27.3356 3.76737 27.0053 2.92459ZM23.1629 9.98551L18.5877 5.14085L10.9271 13.2554C10.814 13.3758 10.7378 13.526 10.7074 13.6884L9.84779 18.2428C9.73554 18.8361 10.2311 19.3589 10.7907 19.2402L15.0917 18.331C15.2482 18.2961 15.3907 18.2151 15.5007 18.0984L23.1629 9.98551Z" fill="#AE72DA"/>
</svg>
