<svg width="51" height="51" viewBox="0 0 51 51" fill="none" xmlns="http://www.w3.org/2000/svg">
<path fill-rule="evenodd" clip-rule="evenodd" d="M6.75 9.875C6.75 9.0462 7.07924 8.25134 7.66529 7.66529C8.25134 7.07924 9.0462 6.75 9.875 6.75H41.125C41.9538 6.75 42.7487 7.07924 43.3347 7.66529C43.9208 8.25134 44.25 9.0462 44.25 9.875V41.125C44.25 41.9538 43.9208 42.7487 43.3347 43.3347C42.7487 43.9208 41.9538 44.25 41.125 44.25H9.875C9.0462 44.25 8.25134 43.9208 7.66529 43.3347C7.07924 42.7487 6.75 41.9538 6.75 41.125V9.875ZM29.3198 12.074V10.9167H31.4031V12.074C31.4031 12.3502 31.5129 12.6152 31.7082 12.8105C31.9036 13.0059 32.1685 13.1156 32.4448 13.1156H36.6115C37.164 13.1156 37.6939 13.3351 38.0846 13.7258C38.4753 14.1165 38.6948 14.6464 38.6948 15.199V25.3031C39.1242 25.5999 39.475 25.9967 39.7169 26.4593C39.9588 26.9219 40.0845 27.4363 40.0833 27.9583C40.0833 29.7125 38.6896 31.1385 36.9583 31.1719V33.3719H40.0833V35.4552H37.8229C38.1622 35.8708 38.3766 36.3741 38.4413 36.9067C38.506 37.4393 38.4182 37.9793 38.1882 38.464C37.9582 38.9487 37.5954 39.3582 37.142 39.6449C36.6885 39.9316 36.1631 40.0838 35.6266 40.0838C35.0901 40.0838 34.5646 39.9316 34.1111 39.6449C33.6577 39.3582 33.2949 38.9487 33.0649 38.464C32.8349 37.9793 32.7472 37.4393 32.8118 36.9067C32.8765 36.3741 33.0909 35.8708 33.4302 35.4552H17.5698C17.9091 35.8708 18.1235 36.3741 18.1882 36.9067C18.2528 37.4393 18.1651 37.9793 17.9351 38.464C17.7051 38.9487 17.3423 39.3582 16.8889 39.6449C16.4354 39.9316 15.9099 40.0838 15.3734 40.0838C14.8369 40.0838 14.3115 39.9316 13.858 39.6449C13.4046 39.3582 13.0418 38.9487 12.8118 38.464C12.5818 37.9793 12.494 37.4393 12.5587 36.9067C12.6234 36.3741 12.8378 35.8708 13.1771 35.4552H10.9167V33.3719H13V24.6187L12.6719 24.2896C12.0658 23.6777 11.7259 22.8513 11.7259 21.9901C11.7259 21.1289 12.0658 20.3025 12.6719 19.6906C13.0427 19.3153 13.5006 19.0376 14.0048 18.8822C14.5089 18.7268 15.0437 18.6986 15.5615 18.8L16.2323 18.1292C16.849 17.5133 17.6851 17.1676 18.5567 17.168C19.4283 17.1684 20.264 17.5148 20.8802 18.1313L22.3385 19.5896C22.6438 19.8948 22.8859 20.2571 23.0511 20.6559C23.2162 21.0547 23.3012 21.4821 23.3011 21.9138C23.301 22.3454 23.2159 22.7728 23.0505 23.1715C22.8852 23.5702 22.6429 23.9325 22.3375 24.2375L22.0385 24.5365L22.1719 24.6719C22.2187 24.7177 22.2823 24.7448 22.349 24.7448H36.6115V15.1979H33.0229V15.7771H33.3698C33.6461 15.7771 33.911 15.8868 34.1064 16.0822C34.3017 16.2775 34.4115 16.5425 34.4115 16.8187V21.2167C34.4115 21.4929 34.3017 21.7579 34.1064 21.9532C33.911 22.1486 33.6461 22.2583 33.3698 22.2583H30.5937C30.3175 22.2583 30.0525 22.1486 29.8572 21.9532C29.6618 21.7579 29.5521 21.4929 29.5521 21.2167V16.8187C29.5521 16.5425 29.6618 16.2775 29.8572 16.0822C30.0525 15.8868 30.3175 15.7771 30.5937 15.7771H30.9406V14.8125C30.45 14.5428 30.0408 14.1463 29.7558 13.6644C29.4709 13.1824 29.3207 12.6328 29.3208 12.0729M20.5708 23.0562L20.8656 22.7615C21.0911 22.5358 21.2178 22.2299 21.2178 21.9109C21.2178 21.592 21.0911 21.286 20.8656 21.0604L19.4073 19.6021C19.1817 19.3767 18.8759 19.25 18.557 19.2498C18.2381 19.2496 17.9321 19.3759 17.7062 19.601L17.4219 19.8854L20.5708 23.0562ZM34.875 31.1719V33.3698H15.0833V26.7156L19.2417 30.9021C19.3261 30.9874 19.4267 31.0551 19.5376 31.1013C19.6485 31.1474 19.7674 31.1711 19.8875 31.1708L34.875 31.1719Z" fill="#7B4B97"/>
</svg>
