<svg width="53" height="53" viewBox="0 0 53 53" fill="none" xmlns="http://www.w3.org/2000/svg">
<path fill-rule="evenodd" clip-rule="evenodd" d="M6.625 9.9375C6.625 9.05897 6.97399 8.21642 7.59521 7.59521C8.21642 6.97399 9.05897 6.625 9.9375 6.625H43.0625C43.941 6.625 44.7836 6.97399 45.4048 7.59521C46.026 8.21642 46.375 9.05897 46.375 9.9375V43.0625C46.375 43.941 46.026 44.7836 45.4048 45.4048C44.7836 46.026 43.941 46.375 43.0625 46.375H9.9375C9.05897 46.375 8.21642 46.026 7.59521 45.4048C6.97399 44.7836 6.625 43.941 6.625 43.0625V9.9375ZM13.4598 22.3881C13.4598 17.6468 16.5294 13.25 20.7363 13.25C23.6546 13.25 25.8198 15.2231 27.157 18.02C28.493 15.2231 30.6583 13.25 33.5777 13.25C37.7835 13.25 40.8542 17.6479 40.8542 22.3881C40.8542 32.5354 27.157 39.75 27.157 39.75C27.157 39.75 18.031 35.234 14.6766 27.8195H18.8437L20.6921 24.5876L22.8518 32.0208L27.9089 25.6277H33.0819C33.2315 25.629 33.3798 25.6008 33.5184 25.5447C33.6571 25.4887 33.7833 25.4058 33.8898 25.3009C33.9964 25.1959 34.0812 25.071 34.1394 24.9333C34.1977 24.7956 34.2282 24.6477 34.2292 24.4981C34.228 24.3487 34.1974 24.2009 34.1391 24.0633C34.0808 23.9257 33.996 23.8009 33.8894 23.6961C33.7829 23.5913 33.6567 23.5086 33.5182 23.4525C33.3796 23.3965 33.2314 23.3684 33.0819 23.3697H26.7871L23.8158 27.1272L21.3866 18.7697L17.5021 25.5637H13.8727C13.6077 24.5478 13.4587 23.4878 13.4587 22.387M13.8606 25.5626H11.0417V27.8184H14.6689L13.8606 25.5626Z" fill="#7B4B97"/>
</svg>
