<svg width="26" height="29" viewBox="0 0 26 29" fill="none" xmlns="http://www.w3.org/2000/svg">
<path fill-rule="evenodd" clip-rule="evenodd" d="M7.41777 0.988618C7.53422 0.755573 7.71325 0.559549 7.93481 0.422499C8.15637 0.285449 8.41171 0.212786 8.67223 0.212646H17.0914C17.3519 0.212786 17.6073 0.285449 17.8288 0.422499C18.0504 0.559549 18.2294 0.755573 18.3459 0.988618L20.765 5.82546H24.1074C24.4795 5.82546 24.8364 5.9733 25.0996 6.23645C25.3628 6.4996 25.5106 6.85651 25.5106 7.22866C25.5106 7.60082 25.3628 7.95773 25.0996 8.22088C24.8364 8.48403 24.4795 8.63187 24.1074 8.63187H22.7042V24.0671C22.7042 25.1836 22.2607 26.2543 21.4712 27.0437C20.6818 27.8332 19.6111 28.2767 18.4946 28.2767H7.26903C6.15258 28.2767 5.08186 27.8332 4.2924 27.0437C3.50295 26.2543 3.05944 25.1836 3.05944 24.0671V8.63187H1.65625C1.2841 8.63187 0.927189 8.48403 0.664038 8.22088C0.400888 7.95773 0.253052 7.60082 0.253052 7.22866C0.253052 6.85651 0.400888 6.4996 0.664038 6.23645C0.927189 5.9733 1.2841 5.82546 1.65625 5.82546H4.99866L7.41777 0.988618ZM16.2242 3.01905L17.6274 5.82546H8.13621L9.53941 3.01905H16.2242ZM11.4786 12.8415C11.4786 12.4693 11.3308 12.1124 11.0676 11.8493C10.8045 11.5861 10.4476 11.4383 10.0754 11.4383C9.70328 11.4383 9.34637 11.5861 9.08322 11.8493C8.82007 12.1124 8.67223 12.4693 8.67223 12.8415V21.2607C8.67223 21.6328 8.82007 21.9898 9.08322 22.2529C9.34637 22.5161 9.70328 22.6639 10.0754 22.6639C10.4476 22.6639 10.8045 22.5161 11.0676 22.2529C11.3308 21.9898 11.4786 21.6328 11.4786 21.2607V12.8415ZM17.0914 12.8415C17.0914 12.4693 16.9436 12.1124 16.6804 11.8493C16.4173 11.5861 16.0604 11.4383 15.6882 11.4383C15.3161 11.4383 14.9592 11.5861 14.696 11.8493C14.4329 12.1124 14.285 12.4693 14.285 12.8415V21.2607C14.285 21.6328 14.4329 21.9898 14.696 22.2529C14.9592 22.5161 15.3161 22.6639 15.6882 22.6639C16.0604 22.6639 16.4173 22.5161 16.6804 22.2529C16.9436 21.9898 17.0914 21.6328 17.0914 21.2607V12.8415Z" fill="#E63946"/>
</svg>
